<svg id="Capa_1" xmlns="http://www.w3.org/2000/svg" viewBox="0 0 126.563 126.562">
  <style>
<![CDATA[
	.st0{fill-rule:evenodd;clip-rule:evenodd;fill:#FFFFFF;stroke:#00B7ED;stroke-width:5;stroke-miterlimit:10;}
	.st1{fill-rule:evenodd;clip-rule:evenodd;fill:#00B7ED;}
]]>
  </style>
  <g id="Nuevo_símbolo_76">
    <path class="st1" d="M92.478 102.092c1.486 2.027-.074 3.118-1.87 4.034-.906.442-1.815.883-2.726 1.32.396 1.12.132 2.15-.576 3.063-1.175 1.51-.025 2.02-.834 3.31-1.152 1.84-1.812 3.42-3.38 4.96-.634-1.46-1.96-2.54-1.884-4.26.073-1.63.874-3.4 1.094-5.02.196-1.44-.55-3.09-.24-4.81.455-2.5 1.424-4.91 1.89-7.43.37-2.01.728-4.13.693-6.17-.035-2.09-1.788-2.32-2.99-3.62-1.303-1.41-1.51-3.56-2.39-5.21-1.36-2.55-2.065-4.1-.697-6.91.5-1.03 2.715-7.33-.61-5.06-2.94-2.25-4.51-4.22-7.81-5.83-2.02-1.01-7.102-1.62-7.86-4.31-.936-3.32-3.393-6.34-5.66-9.05-.52 1.46 3.912 6.02 2.3 6.75-.833-1.56-2.26-2.84-2.4-4.29-.072-.71-2.24-3.55-2.723-4.07-1.435-1.57-3.02-3.32-3.378-5.51-.244-1.51-.666-6.19 1.062-6.74-1.83-1.55-3.79-3.06-4.9-5.26-.98-1.94-2.2-4.54-4.55-4.78-.98-.1-1.61-1.13-2.61-1.4-1.12-.3-2.28-.27-3.4-.54-1.48-.35-4.01 3.54-2.24-.45-.98-.13-7.32 7.62-8.16 5.13 1.71-.67 2.4-1.2 3.58-2.62-.31-.55-.84-.68-1.59-.37-1.3-.07-1.77-1.48-2.08-1.36-1.42.57-2.08-1.33-1.25-2.25.27-.31 2.7-1.41 2.01-1.92-1.47-1.07-3.06.69-3.78-1.77 2.44 0 4.75-.06 1.8-1.93 1.3-.7 2.42-1.82 3.88-2.21 1.35-.36 2.6.6 3.9-.05 4.91-2.49 8.27.85 12.92-.43C48.53 14.1 53 11.6 55.93 15c.65.75.506 3.3 1.137 3.625 1.59.82 3.07-1.067 4.114 1.363.38-1.02.67-2.507 2.16-2.033 1.12.35 4.09 1.587 3.9-.573 2.13 1.965 1.07.53 3.37.295 1.82-.19 3.04-.446 3.4 1.364.73-1.41 3.82-2.48 3.72-.1-.03.94-.6 1.36-1.51 1.3-1.83-.12-1.74.51-2.6 2.14-1.91.62-3.59 1.82-4.15 3.84-.91 3.29 2.54 1.91 3.63 3.32.94 1.41 3.53 1.18 4.13 2.35.31.61.61 4.34 2.25 2.77.38-.73.35-1.48-.09-2.23.59-.78 1.73-1.69 1.46-2.81-.49-2-.33-3.14.08-5.29 2.59.83 3.68.93 4.91 3.07 1.22 2.16 1.83.82 2.86-.62.83 2.73 3.34 4.52 5.27 6.25 1.74 1.55-1.63 2.6-2.62 2.89-2.33.68-3.98-.74-5.49 1.84l2.407-.36c.383 2.52.613 2.34 3.154 2.78-1.19.52-2.38 1.05-3.57 1.58-.38-.41-.23-.81.46-1.21-3-.39-5.78 6.44-7.29 5.62-.19 2.75-.81 2.75-2.47 4.72-1.195 1.41.6 5.56-.636 5.88-.97-2.32-1.16-3.45-3.68-4.09-1.02-.25-5.694.16-6.34 1.01-1.16 1.53-1.405 7.04.69 8.06 2.31 1.11 2.92-2.47 5.52-2.08-.47 3.14-1.23 3.12 1.24 4.268 1.17.54.604 2.56.714 3.52.19 1.666 2.245 1.45 3.48 1.433 2.106-.03 4.1-4.165 4.29-.67.79-1.45 4.8-.44 5.92.17 1.016.55 1.79 1.426 2.62 2.197 1.295 1.192 2.75.69 4.106 1.58 2.757 1.81-1.02 4.86 3.04 4.69.86-.04 5.767 1.79 6.29 2.63.51.825 1.71.62 1.766 1.93.05 1.194-1.26 2.37-1.87 3.26-1.23 1.81-1.144 7.24-2.96 8.14-3.51 1.76-3.19 1.64-4.814 5.08-1.07 2.262-2.75 4.61-5.41 4.19 1.03 1.402 1.996.314 0 0z"/>
    <path class="st1" d="M87.995 15.99c-3.67 2.377-.33 2.096 1.83 3.155 1.03.51 1.016 1.186.103 1.826-2.086 1.47-1.04-1.13-2.514-.26.597 1.26 2.278 3.54-.4 2.64.135.61.27 1.23.407 1.84-.91.37-5.11-2.97-7.05-2.97.84-1.07 1.93-.74 2.78-2.18.92-1.56-1.03-2.13-2.1-2.67-.97-.48-3.99-1.21-3.01-2.93-1.04-.64-5.58-2.75-5.35-3.9 2.06 0 5.39-.03 7.02 1.41 2.15 1.89 6.9 2.11 8.31 4.08-.44.29-.11-.16 0 0zm-14.045-.285c-1.165.467-2.4 1.295-3.723.98-.863-.206-1.615-2.545-.7-2.8 2.196-.607 3.857-.324 4.424 1.82-.91.366-.5-1.907 0 0zm19.914 20.3c3.28 2.567 2.808 3.49-1.414 2.297l1.414-2.297c.506.395-.51.828 0 0zm-18.21 23.282c1.494-2.19 4.646.11 6.266.884-1.835 1.88-3.93-1.83-6.266-.88.683-1 1.402-.57 0 0zm10.616 2.737c-1.614-.08-2.877 1.285-4.252.102 1.295-1.7 2.414-1.8 4.252-.102zM78.49 23.07c-2.232-.14-4.32.996-3.21-1.96.63.322 3.16 1.2 3.21 1.96-2.234-.138-.012-.183 0 0zm6.442 94.694c.958.703 1.915 1.408 2.873 2.11-2.31.268-3.64.5-2.873-2.11.976.716-.183.62 0 0zM43.2 28.476l1.456 1.85c-.94-.044-1.71-1.086-1.456-1.85z"/>
  </g>
</svg>
