<svg id="Capa_1" xmlns="http://www.w3.org/2000/svg" viewBox="0 0 126.561 126.561">
  <style>
<![CDATA[
	.st0{fill-rule:evenodd;clip-rule:evenodd;fill:#FFFFFF;stroke:#00B7ED;stroke-width:5;stroke-miterlimit:10;}
	.st1{fill-rule:evenodd;clip-rule:evenodd;fill:#00B7ED;}
]]>
  </style>
  <path class="st1" d="M83.82 82.56c0 .138-.004.276 0 .413.035 1.05.29 1.342 1.334 1.512.368.063.745.074 1.11.15 1.07.224 1.95 1.26 2.007 2.342.04.736-.19 1.034-.93 1.034-.46 0-.92-.12-1.38-.15-.36-.02-.77-.08-1.09.05-.97.4-1.83.99-2.46 1.86-.58.81-.72 1.73-.35 2.63.34.83.81 1.61 1.27 2.38.62 1 1.33 1.95 1.93 2.96.72 1.19 1.21 2.5 1.17 3.9-.02.81-.17 1.65-.45 2.4-.42 1.1-.63 2.21-.75 3.38-.22 2.06-.51 4.12-.8 6.18-.06.42-.19.85-.37 1.24-.67 1.44-.87 2.96-.89 4.53-.01.53-.1 1.06-.22 1.57-.18.78-.96 1-1.53.44-.36-.36-.68-.76-.98-1.17-.39-.54-.89-.85-1.56-.95-1.5-.24-2.03-1.31-1.21-2.59.55-.85 1.22-1.63 1.92-2.37 1.79-1.87 1.35-4.15-1.05-5.14-.32-.13-.66-.24-.98-.38-.84-.37-1.61-.32-2.38.23-.75.55-1.62.61-2.37.04-1.52-1.16-3.05-1.05-4.64-.23-1.6.82-3.3 1.26-5.11 1.17-.85-.04-1.72-.15-2.56-.33-.86-.18-1.17-.67-.94-1.52.36-1.26.04-2.18-1.09-2.85-.32-.2-.59-.52-.81-.84-.68-.99-1.55-1.78-2.55-2.42-1.63-1.03-2.86-2.42-3.83-4.08-.43-.74-.94-1.45-1.5-2.1-1.3-1.54-2.97-2.41-5-2.54-.23-.02-.49-.04-.68-.15-1.1-.65-2.19-1.31-3.27-2-.36-.23-.67-.54-.99-.83-.39-.35-.83-.45-1.3-.19-1.39.8-2.87.79-4.33.33-1.51-.48-2.98-1.08-4.46-1.66-.64-.25-1.1-.73-1.36-1.39-.26-.66-.67-.883-1.39-.8-.23.03-.46.09-.69.14-.75.164-1.36-.05-1.95-.55-.77-.66-1.56-1.3-2.42-1.83-1.13-.7-2.055-1.58-2.794-2.66-.53-.78-.39-1.32.42-1.81l.05-.03c1.6-.94 1.63-.99 1.156-2.75-.155-.59-.04-1.03.5-1.36.725-.44 1.39-.97 2.15-1.34.82-.4 1.696-.7 2.573-.96.56-.17.866-.387.936-1.02.05-.46.23-1 .54-1.31.64-.65 1.43-1.146 2.13-1.746.4-.35.83-.723 1.09-1.18.363-.64.65-1.35.84-2.064.08-.29-.09-.73-.29-.99-.38-.5-.86-.91-1.3-1.37-.68-.704-.79-1.32-.39-2.198.27-.59.558-1.18.857-1.75.43-.82.44-1.66.148-2.51-.28-.82-.6-1.62-.9-2.43-.303-.83-.17-1.56.39-2.26.83-1.03.787-1.66-.07-2.666-.61-.71-.553-1.13.22-1.696.926-.67.96-.865.337-1.813-.4-.61-.746-1.26-1.22-1.8-.564-.645-1.186-1.26-1.875-1.76-.96-.694-1.195-1.714-.395-2.605.462-.52 1.03-.96 1.593-1.38.57-.42 1.18-.78 1.793-1.13.455-.25.61-.56.52-1.1-.18-1.1-.28-2.21-.85-3.22-.266-.47-.09-.914.35-1.236.44-.32.924-.42 1.355-.06.36.3.64.696.94 1.05.58.664 1.14 1.34 1.72 2 .08.085.27.2.32.165.11-.08.25-.245.235-.36-.07-.58-.085-1.194-.31-1.71-.73-1.69-.6-1.53.8-2.386 1.06-.65 2.06-1.42 3.03-2.22.74-.6 1.37-1.34 2.085-1.984.19-.175.48-.25.73-.325.265-.077.554-.057.81-.14.655-.215.75-.475.45-1.08-.456-.93-.344-1.72.467-2.52.45-.45.61-.84.3-1.445-.32-.64-.25-1.33.15-1.92 1.193-1.78 2.68-3.23 4.714-4.036.96-.38 1.93-.46 2.95-.25 1.15.235 1.358.105 1.77-.97.21-.56.647-.7 1.14-.55.78.22 1.44.12 2.1-.38.27-.2.7-.18 1.06-.26.74-.15 1.518-.21 2.22-.47.9-.33 1.73-.835 2.61-1.225.66-.29 1.37-.47 2.02-.78.59-.28 1.195-.6 1.675-1.03.44-.4.73-.97 1.076-1.46.35-.506.78-.916 1.42-.958.655-.04.954-.41 1.02-1 .066-.57.29-.82.898-.66.157.04.356-.07.53-.126.26-.08.54-.27.77-.23 1.05.2 2.07.53 2.83 1.33.56.58.448.89 0 1.54-.692 1.01-1.66 1.62-2.712 2.18-1.323.7-2.31 1.76-3.22 2.96-.77 1.01-1.72 1.94-2.73 2.72-1.144.88-1.88 1.9-2.13 3.32-.165.94-.534 1.78-1.3 2.44-.242.21-.384.66-.392 1-.04 1.64-.22 3.213-1.28 4.56-.25.32-.04.53.27.61.395.11.8.18 1.21.25.54.1.906.42 1 .95.27 1.47 1.05 2.6 2.03 3.71.6.68.873 1.684 1.194 2.58.2.55-.09 1.05-.58 1.36-.295.18-.355.38-.33.72.05.66.04 1.33-.01 2-.04.53.16.85.58 1.18.925.714 1.814 1.483 2.68 2.28.52.48.72.55 1.33.18.763-.47 1.26-.46 1.92.13 1.07.97 2.28 1.15 3.62.73.313-.1.623-.226.94-.34 1.8-.655 3.46-.36 4.76 1.03 1.68 1.804 3.69 3.11 5.86 4.19.72.35 1.57.56 2.37.58 2.902.06 5.812.1 8.7-.377.654-.11 1.283-.005 1.63.65.393.75.683 1.564.1 2.327-.45.576-.58 1.18-.53 1.873.06.794-.14 1.436-.88 1.906-.73.46-.94 1.27-1.06 2.09-.415 2.79.166 5.38 1.594 7.8.59 1 1.18 1.993 1.75 3.002.64 1.13.557 1.47-.52 2.25-.442.32-.903.62-1.33.97-.74.613-.77 1.2-.04 1.81 1.065.886 1.72 2.013 2.11 3.326.07.23.25.43.407.62.21.26.5.464.66.75.87 1.6 1.43 3.31 1.565 5.137.05.706-.34 1.068-1.078 1.135-.584.05-.9-.19-1.01-.898-.095-.62-.12-1.25-.133-1.878-.02-1.04-.44-1.84-1.3-2.44-.42-.29-.74-.246-1.08.13-.94 1.054-1.27 1.094-2.51.354-1.05-.63-1.31-.595-2.16.315-.7.75-2.31 1.06-3.42.57-.95-.42-1.87-.524-2.84-.09-.2.09-.46.11-.69.106-.31 0-.62-.04-.93-.1-1.985-.32-2.49.1-2.487 2.13z" id="Nuevo_símbolo_3"/>
</svg>
