<svg class="svg-img" xmlns="http://www.w3.org/2000/svg" viewBox="0 0 103.503 103.501">
<circle fill="none" stroke="rgba(253,253,253,1)" stroke-width="3" stroke-miterlimit="10" cx="51.751" cy="51.751" r="50.251"/>
<path fill="rgba(253,253,253,1)" d="M62.503 48.68v6.213c0 .223-.08.44-.235.654-.158.213-.34.33-.54.354l-5.206.81c-.248.79-.605 1.64-1.075 2.56.764 1.08 1.77 2.37 3.022 3.87.15.23.23.45.23.67 0 .27-.08.48-.24.64-.52.67-1.44 1.68-2.77 3.01-1.34 1.34-2.22 2-2.64 2-.25 0-.48-.08-.71-.23l-3.87-3.03c-.83.43-1.69.77-2.59 1.04-.25 2.42-.51 4.16-.78 5.21-.16.54-.5.81-1.01.81h-6.24c-.25 0-.47-.08-.67-.25-.21-.17-.32-.37-.34-.59l-.77-5.14c-.76-.22-1.6-.57-2.52-1.04l-3.96 2.99c-.16.15-.38.23-.68.23-.25 0-.48-.09-.71-.27-3.228-2.98-4.84-4.77-4.84-5.37 0-.2.075-.41.234-.64.22-.31.68-.9 1.373-1.78.69-.87 1.22-1.56 1.576-2.05-.51-.98-.904-1.9-1.17-2.75l-5.11-.8c-.22-.02-.41-.13-.57-.31-.16-.19-.235-.41-.235-.66V48.6c0-.224.08-.442.24-.654.16-.213.34-.332.54-.354l5.204-.806c.25-.786.603-1.637 1.072-2.55-.76-1.08-1.77-2.367-3.028-3.867-.16-.25-.24-.48-.24-.67 0-.27.08-.5.235-.68.49-.67 1.41-1.67 2.76-2.99 1.346-1.32 2.23-1.98 2.65-1.98.25 0 .486.07.71.23l3.86 3.02c.76-.4 1.625-.76 2.586-1.08.25-2.42.51-4.148.78-5.178.16-.54.49-.808 1.01-.808h6.25c.244 0 .47.08.67.25.2.17.31.36.336.585l.77 5.143c.76.22 1.6.57 2.52 1.04l3.96-2.99c.18-.157.4-.233.67-.233.24 0 .48.09.7.266 3.23 2.98 4.84 4.774 4.84 5.38 0 .2-.08.415-.236.64-.27.356-.74.96-1.41 1.814-.67.85-1.17 1.52-1.51 2.013.52 1.08.9 1.99 1.14 2.75l5.1.78c.23.04.42.16.58.35.15.19.23.41.23.66zM47.08 57.816c1.683-1.682 2.52-3.71 2.52-6.08 0-2.376-.837-4.402-2.52-6.08-1.678-1.682-3.705-2.52-6.08-2.52-2.37 0-4.398.838-6.08 2.52-1.678 1.678-2.518 3.704-2.518 6.08 0 2.37.84 4.398 2.518 6.08 1.682 1.676 3.71 2.518 6.08 2.518 2.375 0 4.402-.842 6.08-2.518zM84 32.186v4.702c0 .357-1.668.705-5.006 1.04-.267.606-.605 1.188-1.008 1.748 1.143 2.53 1.714 4.076 1.714 4.635 0 .1-.042.17-.134.24-2.732 1.59-4.12 2.39-4.165 2.39-.18 0-.69-.52-1.54-1.57-.85-1.05-1.43-1.81-1.74-2.28-.44.05-.78.07-1.01.07-.22 0-.56-.02-1.01-.07-.31.47-.89 1.23-1.74 2.28-.85 1.06-1.36 1.58-1.54 1.58-.04 0-1.43-.79-4.16-2.38-.09-.07-.13-.14-.13-.23 0-.55.57-2.1 1.71-4.63-.4-.56-.73-1.14-1-1.75-3.34-.33-5-.68-5-1.04V32.2c0-.358 1.67-.706 5.01-1.04.29-.65.63-1.23 1.01-1.75-1.14-2.53-1.71-4.074-1.71-4.635 0-.09.04-.164.13-.23.09-.046.48-.27 1.176-.67.695-.404 1.353-.786 1.98-1.146.63-.36.964-.54 1.01-.54.18 0 .69.52 1.545 1.56.857 1.04 1.438 1.8 1.75 2.27.45-.05.787-.07 1.01-.07.224 0 .56.02 1.01.07 1.143-1.59 2.175-2.85 3.09-3.77l.203-.06c.09 0 1.48.78 4.167 2.35.09.07.13.15.13.23 0 .56-.57 2.1-1.72 4.63.38.52.72 1.1 1.01 1.75 3.34.333 5.004.68 5.004 1.04zm0 34.396v4.703c0 .357-1.668.705-5.006 1.04-.267.606-.605 1.19-1.008 1.75C79.13 76.603 79.7 78.15 79.7 78.71c0 .09-.042.166-.134.234-2.732 1.588-4.12 2.383-4.165 2.383-.18 0-.69-.523-1.54-1.578-.85-1.06-1.43-1.82-1.74-2.29-.44.04-.78.06-1.01.06-.22 0-.56-.02-1.01-.07-.31.47-.89 1.23-1.74 2.28-.85 1.05-1.36 1.57-1.54 1.57-.04 0-1.43-.8-4.16-2.38-.09-.07-.13-.15-.13-.24 0-.56.57-2.11 1.71-4.64-.4-.56-.73-1.15-1-1.75-3.34-.34-5-.69-5-1.04v-4.7c0-.36 1.67-.71 5.01-1.04.29-.65.63-1.24 1.01-1.75-1.14-2.53-1.71-4.08-1.71-4.64 0-.09.04-.17.13-.24.09-.04.48-.267 1.176-.67s1.353-.78 1.98-1.14c.63-.36.964-.54 1.01-.54.18 0 .69.52 1.545 1.56s1.43 1.8 1.74 2.27c.45-.04.79-.068 1.01-.068.226 0 .56.024 1.01.067 1.144-1.59 2.176-2.84 3.09-3.76l.204-.065c.09 0 1.48.78 4.165 2.35.09.063.133.143.133.233 0 .56-.57 2.1-1.72 4.63.38.52.72 1.1 1.01 1.75 3.34.333 5.007.68 5.007 1.04zm-8.6-32.047c0-1.162-.425-2.172-1.277-3.022-.85-.85-1.855-1.277-3.022-1.277-1.16 0-2.17.427-3.02 1.277-.85.85-1.27 1.86-1.27 3.022 0 1.187.42 2.202 1.26 3.04.84.843 1.86 1.26 3.04 1.26s2.2-.417 3.04-1.26c.84-.838 1.26-1.853 1.26-3.04zm0 34.4c0-1.167-.425-2.175-1.277-3.024-.85-.85-1.855-1.27-3.022-1.27-1.16 0-2.17.43-3.02 1.28-.85.85-1.27 1.86-1.27 3.03 0 1.19.42 2.2 1.26 3.04.84.84 1.86 1.26 3.04 1.26s2.2-.42 3.04-1.26c.84-.84 1.26-1.85 1.26-3.04z"/>
</svg>