<svg class="svg-img" xmlns="http://www.w3.org/2000/svg" xmlns:xlink="http://www.w3.org/1999/xlink" viewBox="0 0 105 105">
        <circle fill="none" stroke="rgba(253,253,253,1)" stroke-width="3" stroke-miterlimit="10" cx="52.5" cy="52.5" r="50.25"/>
        <circle fill="none" cx="52.5" cy="52.5" r="50.25"/>
        <path fill="rgba(253,253,253,1)" d="M67.22 9.24c.77.9.87 2.18.3 3.85-.54 1.6-1.47 3.1-2.8 4.4l-4.18 4.2 4.16 18.1c.1.3-.02.6-.3.8l-3.34 2.5c-.12.1-.3.1-.5.1-.06 0-.13 0-.18-.1-.26-.07-.44-.2-.54-.44l-7.26-13.2-6.73 6.74 1.38 5.05c.08.24 0 .5-.2.8l-2.5 2.5c-.16.1-.37.2-.6.2h-.06c-.26-.05-.47-.17-.62-.36L38.33 38l-6.55-4.92c-.2-.1-.3-.3-.34-.6-.02-.23.06-.44.23-.65l2.5-2.53c.16-.14.36-.22.6-.22.1 0 .17.03.2.05l5.05 1.4 6.73-6.73-13.2-7.26c-.25-.13-.4-.34-.45-.6-.03-.3.05-.5.24-.7l3.32-3.3c.25-.25.5-.3.8-.2l17.28 4.1 4.16-4.16c1.32-1.3 2.8-2.25 4.47-2.8 1.67-.56 2.95-.46 3.85.3z"/>
        <defs>
          <circle id="a" cx="52.5" cy="52.5" r="50.25"/>
        </defs>
        <clipPath id="b">
          <use xlink:href="#a" overflow="visible"/>
        </clipPath>
        <path clip-path="url(#b)" fill="rgba(253,253,253,1)" d="M27.26 95.8c-.4.42-.88.62-1.44.62-.56 0-1.04-.2-1.44-.6l-4.1-4.1 2.88-2.9 2.66 2.63 2.67-2.63c.4-.4.8-.6 1.4-.6s1 .2 1.4.6l2.7 2.63 2-2.05V80l-6.7-10.06c-.4-.56-.5-1.16-.3-1.82.2-.65.6-1.08 1.3-1.3l5.7-1.85v-9.6h4.1v-4.1h8.2v-4.1h8.2v4.1h8.2v4.1h4.1v9.6l5.7 1.85c.6.22 1 .65 1.2 1.3.2.66.14 1.26-.23 1.82L68.92 80v9.4l.6-.58c.4-.4.9-.6 1.45-.6.56 0 1.04.2 1.44.6l2.7 2.63 2.7-2.63c.4-.4.9-.6 1.5-.6s1.1.2 1.5.6l4.1 4.1-2.9 2.9-2.64-2.67-2.7 2.66c-.4.5-.86.7-1.43.7-.6 0-1.05-.2-1.44-.6L71 93.2l-2.66 2.65c-.4.42-.88.62-1.43.62-.5 0-1-.2-1.4-.6l-2.7-2.67-2.6 2.65c-.4.42-.9.62-1.4.62-.55 0-1.03-.2-1.43-.6l-2.7-2.67L52 95.85c-.4.42-.9.62-1.46.62-.56 0-1.04-.2-1.44-.6l-2.7-2.67-2.66 2.65c-.4.42-.9.62-1.46.62-.55 0-1.03-.2-1.44-.6L38.2 93.2l-2.67 2.66c-.4.42-.9.62-1.47.62-.56 0-1.04-.2-1.45-.6l-2.7-2.68-2.6 2.68zm50.48 1.23c.4-.4.9-.6 1.44-.6.56 0 1.04.2 1.44.6l4.1 4.1-2.88 2.9-2.66-2.67-2.66 2.66c-.4.4-.87.6-1.44.6-.58 0-1.06-.2-1.44-.6l-2.67-2.66-2.66 2.66c-.4.4-.8.6-1.4.6-.5 0-1-.2-1.4-.6l-2.6-2.66-2.6 2.66c-.4.4-.84.6-1.4.6-.6 0-1.06-.2-1.46-.6l-2.66-2.66-2.65 2.66c-.4.4-.9.6-1.4.6-.55 0-1.03-.2-1.44-.6l-2.6-2.66-2.67 2.66c-.4.4-.9.6-1.44.6-.56 0-1.04-.2-1.45-.6l-2.6-2.66-2.68 2.66c-.4.4-.9.6-1.43.6-.6 0-1.05-.2-1.46-.6l-2.7-2.66-2.67 2.66c-.4.4-.9.6-1.43.6-.54 0-1-.2-1.4-.6l-4.15-4.1 2.9-2.9L26 99.7l2.6-2.7c.4-.4.86-.6 1.4-.6s1.06.2 1.46.6l2.6 2.6 2.7-2.6c.4-.4.9-.6 1.44-.6.56 0 1.04.2 1.44.6l2.68 2.63L44.9 97c.4-.4.9-.6 1.44-.6.56 0 1.04.2 1.44.6l2.65 2.66L53.1 97c.4-.4.88-.6 1.44-.6.55 0 1.03.2 1.44.6l2.66 2.65 2.66-2.67c.4-.4.9-.6 1.45-.6.55 0 1.03.2 1.44.6l2.6 2.66 2.6-2.67c.4-.4.9-.6 1.4-.6.5 0 1 .2 1.4.6l2.7 2.66 2.65-2.67zM40.2 59.48v4.1l12.3-4.1 12.32 4.1v-4.1h-4.1v-4.1H44.28v4.1h-4.1z"/>
      </svg>