<svg class="svg-img" xmlns="http://www.w3.org/2000/svg" viewBox="0 0 103.5 103.5">
            <circle fill="none" stroke="rgba(253,253,253,1)" stroke-width="3" stroke-miterlimit="10" cx="51.8" cy="51.8" r="50.3"/>
            <path fill="rgba(253,253,253,1)" d="M81.8 43c0 .4-.4 1-1 1.6l-13 12.8 3 18v.8c0 .5 0 1-.3 1.2-.3.4-.6.6-1 .6-.6 0-1-.2-1.6-.5L51.5 69l-16 8.5c-.7.3-1.2.5-1.6.5-.4 0-.8-.2-1-.6-.3-.3-.4-.7-.4-1.2v-.8l3.2-18-13.2-12.8c-.6-.6-1-1.2-1-1.7 0-1 .8-1.6 2.2-1.8l18-2.7L50 22.2c.4-1 1-1.5 1.8-1.5.7 0 1.3.5 1.7 1.5l8 16.4 18.2 2.7c1.4.2 2 .7 2 1.6z"/>
          </svg>