<svg class="svg-img" xmlns="http://www.w3.org/2000/svg" viewBox="0 0 103.5 103.501">
<circle fill="none" stroke="rgba(252,252,252,1)" stroke-width="3" stroke-miterlimit="10" cx="51.75" cy="51.75" r="50.25"/>
<path fill="rgba(252,252,252,1)" d="M37.8 27.68c4.25-2.5 8.9-3.73 13.95-3.73 5.04 0 9.7 1.24 13.96 3.73 4.3 2.48 7.7 5.86 10.2 10.12 2.5 4.26 3.8 8.9 3.8 13.95 0 5.05-1.2 9.7-3.7 13.96-2.6 4.3-6 7.7-10.2 10.2-4.2 2.5-8.9 3.8-13.9 3.8S42.2 78.5 38 76s-7.63-5.8-10.1-10.1c-2.5-4.3-3.72-8.9-3.72-14 0-5 1.25-9.7 3.74-13.92 2.47-4.26 5.85-7.63 10.1-10.1zM61.67 42.8c-.05.03-.16.15-.35.36-.18.2-.34.3-.48.34.04 0 .1-.06.16-.18l.18-.4c.06-.14.1-.23.13-.25.2-.17.5-.35.8-.55.4-.14 1-.3 1.9-.43.8-.2 1.5-.1 1.9.4 0-.1.1-.3.4-.5.3-.3.5-.4.5-.5.1-.1.3-.1.6-.2s.5-.2.6-.3l.1-.8c-.3 0-.5-.1-.6-.3-.1-.2-.2-.5-.2-.8 0 0-.1.1-.2.3 0-.2 0-.3-.1-.3-.1-.1-.2 0-.4 0h-.3c-.2-.1-.4-.2-.5-.3-.1-.1-.2-.3-.3-.6l-.1-.6c0-.2-.2-.3-.3-.4-.2-.2-.3-.3-.3-.4l-.1-.2-.1-.3c-.1-.1-.1-.2-.2-.2 0-.1-.1-.1-.2-.1s-.1 0-.2.2l-.3.3c-.1.1-.1.2-.1.2 0-.1-.1-.1-.2-.1H63l-.2.1-.1.1c-.05.1-.2.1-.3.1l-.3.1c.4-.1.37-.3 0-.4-.28-.1-.47-.1-.6-.1.2-.1.3-.3.25-.5-.06-.2-.16-.4-.3-.5h.2c0-.1-.1-.2-.3-.3l-.6-.3c-.3-.1-.4-.2-.5-.2-.2-.1-.6-.2-1.26-.3-.6-.1-1-.1-1.2 0-.1.1-.2.2-.2.3 0 .1.1.3.2.5s.1.4.1.4c0 .1-.1.3-.2.5-.2.1-.2.3-.2.4 0 .2.1.4.5.6.3.2.4.4.3.7 0 .2-.2.4-.6.6-.3.2-.5.4-.6.5-.1.1-.1.4-.1.6.1.3.2.5.4.6v.1l-.2.1-.2.2c-.1.1-.1.1-.2.1l-.1.1c-.3.1-.6.1-.8-.2-.3-.3-.4-.6-.5-.9-.2-.6-.4-1-.6-1.1-.6-.2-.9-.2-1.1 0-.1-.3-.6-.6-1.5-.9-.6-.2-1.3-.3-2.1-.1.1 0 .1-.2 0-.5-.2-.4-.4-.5-.7-.5 0-.2.1-.4.1-.7v-.5c0-.3.2-.6.4-.8l.2-.3.3-.5c.1-.2.1-.2 0-.2.8.1 1.4-.1 1.8-.4.1-.2.3-.4.4-.7.2-.3.3-.5.4-.6.2-.2.4-.2.5-.2.1 0 .3.1.5.2s.4.2.5.2c.3 0 .5-.1.5-.4 0-.3-.1-.5-.3-.7.3 0 .3-.2.1-.6-.1-.2-.2-.3-.3-.4-.3-.1-.6-.1-1 .1-.2.1-.2.2.1.3-.1 0-.2.1-.4.4-.2.3-.4.5-.6.6-.2.1-.4 0-.6-.2-.1-.1-.1-.2-.2-.5s-.3-.5-.4-.5c-.2 0-.4.2-.6.5 0-.2-.1-.3-.4-.5-.4-.2-.7-.3-.9-.3.4-.3.3-.6-.3-1-.2-.1-.4-.1-.8-.2-.4 0-.6 0-.7.1-.2.2-.2.3-.2.4-.1.1 0 .2.1.3l.4.2.4.2.3.1c.3.2.4.4.3.5l-.3.1-.5.2c-.2 0-.2.1-.2.1-.1.1-.1.3 0 .5 0 .2 0 .4-.1.5-.2-.1-.3-.3-.4-.6-.1-.3-.2-.5-.3-.6.2.2-.1.3-.9.2h-1.1c-.2 0-.4-.1-.5-.3-.1-.2-.1-.4 0-.7 0-.1.1-.1.1 0l-.4-.4-.35-.3c-1.1.3-2.2.8-3.4 1.5.1 0 .3 0 .4-.1l.5-.2.4-.2c.8-.3 1.4-.4 1.5-.2l.2-.2.7.9c-.1-.1-.5-.1-1.1 0-.4.1-.7.3-.8.4.2.3.3.5.2.6l-.4-.4c-.1-.2-.3-.3-.5-.4-.1-.1-.3-.2-.5-.2h-.8c-3.5 1.9-6.4 4.6-8.5 8 .2.1.3.2.4.3.1 0 .2.1.2.3l.1.4s.2 0 .4-.1c.2.2.3.4.1.7 0-.1.6.3 1.6.9.5.4.7.7.8.8.1.2 0 .5-.4.6 0-.1-.1-.2-.3-.4-.2-.2-.3-.2-.3-.1-.1.1-.1.3 0 .6s.2.4.4.4c-.2 0-.3.2-.3.6-.1.4-.1.8-.1 1.3v.8h.1c-.1.3 0 .7.2 1.2s.5.8.8.7c-.3.1 0 .6.8 1.6l.3.3.5.3.6.4c.2.1.3.2.4.3.1.1.2.4.4.8.1.4.3.7.5.8 0 .1.1.4.4.7.3.3.4.6.4.8l-.1.02-.1.1c.1.2.3.4.6.5.3.2.5.4.6.5v.4c0 .2.1.3.1.4.1.1.2.1.3.1.1-.5-.2-1.2-.9-2.3L40 52l-.2-.6c0-.3-.1-.5-.1-.6 0 0 .1 0 .2.1.1 0 .2 0 .3.1l.3.1s.1.1 0 .1c-.1.2 0 .4.1.6.1.2.2.5.4.7l.6.7.4.5c.1.1.3.4.5.7.2.3.2.5 0 .5.2 0 .4.1.7.3.24.2.44.44.6.7.1.2.2.5.3.9.03.4.1.7.14.8.06.2.16.4.3.5.2.2.3.3.5.4l.6.3c.2.1.4.2.4.25l.7.4c.3.2.6.4.8.4.25.1.44.2.6.2.15 0 .33 0 .53-.1.2 0 .4-.1.5-.1.3-.1.7.1 1 .5.3.4.6.7.8.8.9.5 1.5.6 2 .4-.1 0-.1.1 0 .3l.3.6.3.5.2.3c.1.2.3.4.6.6.3.3.5.4.68.6.18-.1.2-.2.3-.36-.1.2 0 .4.27.7.3.3.5.4.7.4.4-.1.5-.5.5-1.2-.7.3-1.3.1-1.7-.7 0 0 0-.1-.1-.2l-.15-.3-.1-.3c.1-.1.1-.1.2-.1.2 0 .4-.1.4-.2.05-.1 0-.3-.05-.5l-.2-.5c0-.2-.1-.4-.4-.7l-.5-.5c-.1.2-.3.3-.6.3-.2 0-.4-.1-.6-.3v.2l-.1.2H52l.1-.6c0-.4.04-.7.1-.8 0-.1.04-.3.2-.5l.2-.5c0-.2.1-.3.1-.5.07-.1 0-.3-.12-.3s-.35-.1-.6-.1c-.5 0-.8.3-.97.7l-.1.3c0 .2-.1.3-.2.4 0 .1-.1.1-.3.2-.1 0-.4.1-.8 0s-.7-.1-.9-.2c-.3-.2-.6-.6-.8-1.1-.2-.5-.3-1-.3-1.4 0-.3.1-.6.1-1 .1-.4.1-.7.1-.9 0-.2 0-.5-.2-.9.1 0 .2-.1.4-.3.1-.2.3-.3.4-.4h.4c.1 0 .1 0 .2-.1s.1-.1.1-.2l-.1-.1c0-.1-.1-.1-.1-.1.2.1.5.1 1.1-.1.5-.1.9-.1 1 .1.4.3.6.2.8-.1l-.1-.38c0-.2-.1-.35 0-.5.2.7.5.8 1.1.36.1.1.3.1.6.2.3 0 .5.1.6.2 0 .1.1.1.2.2l.2.2h.2c.1 0 .2-.1.3-.2.3.3.4.6.5.8.3.9.5 1.5.7 1.6.1 0 .3.1.4 0 .1 0 .1-.1.1-.3v.1c0-.1 0-.3-.1-.45v-1.2c-.4 0-.6-.2-.7-.4-.1-.2-.1-.4 0-.65.2-.2.3-.4.6-.7l.3-.1.6-.2c.2-.1.4-.2.5-.3.5-.4.7-.9.6-1.2.2 0 .3-.1.4-.3 0 0-.1 0-.2-.1H58l-.14-.02c.2-.1.23-.3.1-.6.1-.1.2-.2.23-.4s.1-.3.2-.37c.2.3.4.3.7.1.1-.2.2-.4 0-.6.1-.2.4-.3.7-.4s.6-.2.7-.3c.2 0 .3 0 .3-.1v-.4c0-.2 0-.3.1-.4.1-.1.3-.2.5-.3l.4-.1.6-.4c.1-.1.1-.1 0-.1.4.1.8-.1 1.1-.4.2-.2.2-.5-.2-.7.1-.1 0-.3-.1-.3-.2-.1-.3-.1-.6-.2h.8c.3-.2.3-.4-.3-.6-.4-.1-.9.1-1.6.5zm-5.9 31.76c4.97-.87 9.2-3.15 12.7-6.84-.07-.07-.22-.13-.45-.17-.23-.03-.38-.07-.45-.12-.43-.17-.72-.27-.87-.3.03-.16 0-.32-.1-.46-.07-.15-.17-.26-.28-.33l-.45-.3c-.2-.1-.33-.2-.4-.24l-.25-.22-.26-.2c-.04-.04-.13-.1-.27-.16-.2-.07-.3-.1-.3-.07-.1.02-.2.03-.4.03l-.1.04c-.1.02-.2.05-.2.1l-.2.1c-.1.03-.1.07-.2.1v.1c-.5-.4-1-.68-1.3-.8-.1-.02-.3-.1-.4-.2s-.3-.2-.4-.25c-.1-.06-.3-.08-.4-.06l-.4.3c-.1.1-.2.3-.2.6l-.1.5c-.2-.1-.2-.3 0-.6s.2-.5 0-.6c-.1-.1-.2-.2-.4-.1s-.3.1-.4.2l-.4.3-.3.3-.3.2c-.2.1-.3.2-.3.3-.1.1-.2.3-.3.4l-.2.4c-.1-.1-.2-.2-.4-.2-.3 0-.4-.1-.4-.2 0 .3.1.7.1 1.3 0 .6.1 1.1.2 1.4.1.8 0 1.3-.5 1.7-.7.6-1 1.1-1.1 1.5-.1.5 0 .8.4.9 0 .2-.1.4-.3.8-.2.4-.3.6-.3.8v.6z"/>
</svg>